<?xml version="1.0" encoding="utf-8"?>
<!-- Generator: Adobe Illustrator 24.0.3, SVG Export Plug-In . SVG Version: 6.00 Build 0)  -->
<svg version="1.1" id="Layer_1" xmlns="http://www.w3.org/2000/svg" xmlns:xlink="http://www.w3.org/1999/xlink" x="0px" y="0px"
	 viewBox="0 0 50.6 50.6" style="enable-background:new 0 0 50.6 50.6;" xml:space="preserve">
<style type="text/css">
	.st0{fill:#2E3192;}
	.st1{fill:#ED1C24;}
</style>
<circle class="st0" cx="25.3" cy="40.1" r="1.9"/>
<circle class="st1" cx="14.8" cy="14.8" r="1.9"/>
<circle class="st0" cx="25.3" cy="47.8" r="2.8"/>
<circle class="st1" cx="9.4" cy="9.4" r="2.8"/>
<circle class="st0" cx="25.3" cy="34.6" r="1.2"/>
<circle class="st1" cx="18.7" cy="18.7" r="1.2"/>
<g>
	<circle class="st0" cx="25.3" cy="10.4" r="1.9"/>
	<circle class="st0" cx="25.3" cy="16" r="1.2"/>
	<circle class="st0" cx="25.3" cy="2.8" r="2.8"/>
	<circle class="st0" cx="25.3" cy="20.3" r="0.7"/>
</g>
<g>
	<circle class="st0" cx="40.1" cy="25.3" r="1.9"/>
	<circle class="st0" cx="34.6" cy="25.3" r="1.2"/>
	<circle class="st0" cx="47.8" cy="25.3" r="2.8"/>
	<circle class="st0" cx="30.2" cy="25.3" r="0.7"/>
</g>
<g>
	<circle class="st0" cx="10.4" cy="25.3" r="1.9"/>
	<circle class="st0" cx="16" cy="25.3" r="1.2"/>
	<circle class="st0" cx="2.8" cy="25.3" r="2.8"/>
	<circle class="st0" cx="20.3" cy="25.3" r="0.7"/>
</g>
<circle class="st0" cx="25.3" cy="30.2" r="0.7"/>
<g>
	<circle class="st1" cx="35.8" cy="14.8" r="1.9"/>
	<circle class="st1" cx="41.2" cy="9.4" r="2.8"/>
	<circle class="st1" cx="31.9" cy="18.7" r="1.2"/>
	<circle class="st1" cx="28.8" cy="21.8" r="0.7"/>
</g>
<g>
	<circle class="st1" cx="35.8" cy="35.8" r="1.9"/>
	<circle class="st1" cx="41.2" cy="41.2" r="2.8"/>
	<circle class="st1" cx="31.9" cy="31.9" r="1.2"/>
	<circle class="st1" cx="28.8" cy="28.8" r="0.7"/>
</g>
<circle class="st1" cx="21.8" cy="21.8" r="0.7"/>
<g>
	<circle class="st1" cx="14.8" cy="35.8" r="1.9"/>
	<circle class="st1" cx="9.4" cy="41.2" r="2.8"/>
	<circle class="st1" cx="18.7" cy="31.9" r="1.2"/>
	<circle class="st1" cx="21.8" cy="28.8" r="0.7"/>
</g>
</svg>
