<?xml version="1.0" encoding="utf-8"?>
<!-- Generator: Adobe Illustrator 24.0.3, SVG Export Plug-In . SVG Version: 6.00 Build 0)  -->
<svg version="1.1" id="Layer_1" xmlns="http://www.w3.org/2000/svg" xmlns:xlink="http://www.w3.org/1999/xlink" x="0px" y="0px"
	 viewBox="0 0 580 122.5" style="enable-background:new 0 0 580 122.5;" xml:space="preserve">
<style type="text/css">
	.st0{fill:#E52528;}
	.st1{fill:#FFFFFF;}
</style>
<g>
	<path class="st0" d="M42.8,35.9c1.6,1.6,1.6,4.2,0,5.7c-1.6,1.6-4.2,1.6-5.7,0c-1.6-1.6-1.6-4.2,0-5.7
		C38.6,34.3,41.2,34.3,42.8,35.9"/>
	<path class="st0" d="M88.8,35.9c1.6,1.6,1.6,4.2,0,5.7c-1.6,1.6-4.2,1.6-5.7,0c-1.6-1.6-1.6-4.2,0-5.7
		C84.6,34.3,87.2,34.3,88.8,35.9"/>
	<path class="st0" d="M42.8,81.9c1.6,1.6,1.6,4.2,0,5.7c-1.6,1.6-4.2,1.6-5.7,0c-1.6-1.6-1.6-4.2,0-5.7
		C38.6,80.3,41.2,80.3,42.8,81.9"/>
	<path class="st0" d="M88.8,81.9c1.6,1.6,1.6,4.2,0,5.7c-1.6,1.6-4.2,1.6-5.7,0c-1.6-1.6-1.6-4.2,0-5.7
		C84.6,80.3,87.2,80.3,88.8,81.9"/>
	<path class="st0" d="M67,29.3c0,2.2-1.8,4.1-4.1,4.1c-2.2,0-4.1-1.8-4.1-4.1c0-2.2,1.8-4.1,4.1-4.1C65.1,25.2,67,27,67,29.3"/>
	<path class="st0" d="M99.5,61.8c0,2.2-1.8,4.1-4.1,4.1c-2.2,0-4.1-1.8-4.1-4.1c0-2.2,1.8-4.1,4.1-4.1
		C97.7,57.7,99.5,59.6,99.5,61.8"/>
	<path class="st0" d="M34.4,61.8c0,2.2-1.8,4.1-4.1,4.1c-2.2,0-4.1-1.8-4.1-4.1c0-2.2,1.8-4.1,4.1-4.1
		C32.6,57.7,34.4,59.6,34.4,61.8"/>
	<path class="st0" d="M67,94.3c0,2.2-1.8,4.1-4.1,4.1c-2.2,0-4.1-1.8-4.1-4.1c0-2.2,1.8-4.1,4.1-4.1C65.1,90.3,67,92.1,67,94.3"/>
	<path class="st0" d="M50.2,45.5c1,1,1,2.6,0,3.6c-1,1-2.6,1-3.6,0c-1-1-1-2.6,0-3.6C47.6,44.5,49.2,44.5,50.2,45.5"/>
	<path class="st0" d="M79.2,45.5c1,1,1,2.6,0,3.6c-1,1-2.6,1-3.6,0c-1-1-1-2.6,0-3.6C76.5,44.5,78.2,44.5,79.2,45.5"/>
	<path class="st0" d="M50.2,74.4c1,1,1,2.6,0,3.6c-1,1-2.6,1-3.6,0c-1-1-1-2.6,0-3.6C47.6,73.5,49.2,73.5,50.2,74.4"/>
	<path class="st0" d="M32.4,22.6c2.4,2.4,2.4,6.3,0,8.7c-2.4,2.4-6.3,2.4-8.7,0c-2.4-2.4-2.4-6.3,0-8.7C26.1,20.2,30,20.2,32.4,22.6
		"/>
	<path class="st0" d="M102.1,22.6c2.4,2.4,2.4,6.3,0,8.7c-2.4,2.4-6.3,2.4-8.7,0c-2.4-2.4-2.4-6.3,0-8.7
		C95.8,20.2,99.7,20.2,102.1,22.6"/>
	<path class="st0" d="M32.4,92.3c2.4,2.4,2.4,6.3,0,8.7c-2.4,2.4-6.3,2.4-8.7,0c-2.4-2.4-2.4-6.3,0-8.7C26.1,89.9,30,89.9,32.4,92.3
		"/>
	<path class="st0" d="M102.1,92.3c2.4,2.4,2.4,6.3,0,8.7c-2.4,2.4-6.3,2.4-8.7,0c-2.4-2.4-2.4-6.3,0-8.7
		C95.8,89.9,99.7,89.9,102.1,92.3"/>
	<path class="st0" d="M69,12.5c0,3.4-2.8,6.2-6.2,6.2c-3.4,0-6.2-2.8-6.2-6.2c0-3.4,2.8-6.2,6.2-6.2C66.3,6.4,69,9.1,69,12.5"/>
	<path class="st0" d="M118.3,61.8c0,3.4-2.8,6.2-6.2,6.2c-3.4,0-6.2-2.8-6.2-6.2c0-3.4,2.8-6.2,6.2-6.2
		C115.5,55.6,118.3,58.4,118.3,61.8"/>
	<path class="st0" d="M19.8,61.8c0,3.4-2.8,6.2-6.2,6.2c-3.4,0-6.2-2.8-6.2-6.2c0-3.4,2.8-6.2,6.2-6.2C17,55.6,19.8,58.4,19.8,61.8"
		/>
	<path class="st0" d="M69,111.1c0,3.4-2.8,6.2-6.2,6.2c-3.4,0-6.2-2.8-6.2-6.2c0-3.4,2.8-6.2,6.2-6.2C66.3,104.9,69,107.7,69,111.1"
		/>
	<path class="st0" d="M79.2,74.4c1,1,1,2.6,0,3.6c-1,1-2.6,1-3.6,0c-1-1-1-2.6,0-3.6C76.5,73.5,78.2,73.5,79.2,74.4"/>
	<path class="st0" d="M65.4,41.4c0,1.4-1.1,2.6-2.6,2.6c-1.4,0-2.6-1.1-2.6-2.6c0-1.4,1.1-2.6,2.6-2.6
		C64.3,38.8,65.4,39.9,65.4,41.4"/>
	<path class="st0" d="M85.9,61.8c0,1.4-1.1,2.6-2.6,2.6c-1.4,0-2.6-1.1-2.6-2.6c0-1.4,1.1-2.6,2.6-2.6
		C84.7,59.2,85.9,60.4,85.9,61.8"/>
	<path class="st0" d="M45,61.8c0,1.4-1.1,2.6-2.6,2.6c-1.4,0-2.6-1.1-2.6-2.6c0-1.4,1.1-2.6,2.6-2.6C43.9,59.2,45,60.4,45,61.8"/>
	<path class="st0" d="M65.4,82.2c0,1.4-1.1,2.6-2.6,2.6c-1.4,0-2.6-1.1-2.6-2.6c0-1.4,1.1-2.6,2.6-2.6
		C64.3,79.7,65.4,80.8,65.4,82.2"/>
	<path class="st0" d="M56.4,53c0.6,0.6,0.6,1.7,0,2.3c-0.6,0.6-1.7,0.6-2.3,0c-0.6-0.6-0.6-1.7,0-2.3C54.7,52.3,55.7,52.3,56.4,53"
		/>
	<path class="st0" d="M71.7,53c0.6,0.6,0.6,1.7,0,2.3c-0.6,0.6-1.7,0.6-2.3,0c-0.6-0.6-0.6-1.7,0-2.3C70,52.3,71.1,52.3,71.7,53"/>
	<path class="st0" d="M56.4,68.3c0.6,0.6,0.6,1.7,0,2.3c-0.6,0.6-1.7,0.6-2.3,0c-0.6-0.6-0.6-1.7,0-2.3
		C54.7,67.7,55.7,67.7,56.4,68.3"/>
	<path class="st0" d="M71.7,68.3c0.6,0.6,0.6,1.7,0,2.3c-0.6,0.6-1.7,0.6-2.3,0c-0.6-0.6-0.6-1.7,0-2.3C70,67.7,71.1,67.7,71.7,68.3
		"/>
	<path class="st0" d="M64.5,51c0,0.9-0.7,1.6-1.6,1.6c-0.9,0-1.6-0.7-1.6-1.6c0-0.9,0.7-1.6,1.6-1.6C63.8,49.3,64.5,50.1,64.5,51"/>
	<path class="st0" d="M75.4,61.8c0,0.9-0.7,1.6-1.6,1.6c-0.9,0-1.6-0.7-1.6-1.6c0-0.9,0.7-1.6,1.6-1.6
		C74.6,60.2,75.4,60.9,75.4,61.8"/>
	<path class="st0" d="M53.7,61.8c0,0.9-0.7,1.6-1.6,1.6c-0.9,0-1.6-0.7-1.6-1.6c0-0.9,0.7-1.6,1.6-1.6
		C52.9,60.2,53.7,60.9,53.7,61.8"/>
	<path class="st0" d="M64.5,72.6c0,0.9-0.7,1.6-1.6,1.6c-0.9,0-1.6-0.7-1.6-1.6c0-0.9,0.7-1.6,1.6-1.6C63.8,71,64.5,71.7,64.5,72.6"
		/>
	<polygon class="st1" points="154,20.3 154,49.7 171.5,49.7 171.5,53.4 149.6,53.4 149.6,20.3 	"/>
	<path class="st1" d="M178.2,45.3c0.4,1.1,0.9,2.1,1.6,2.8c0.7,0.8,1.5,1.3,2.4,1.7c0.9,0.4,1.9,0.6,2.9,0.6c1,0,2-0.2,2.9-0.6
		c0.9-0.4,1.7-1,2.4-1.7c0.7-0.8,1.2-1.7,1.6-2.8c0.4-1.1,0.6-2.4,0.6-3.9c0-1.5-0.2-2.7-0.6-3.9c-0.4-1.1-0.9-2.1-1.6-2.8
		c-0.7-0.8-1.5-1.4-2.4-1.8c-0.9-0.4-1.9-0.6-2.9-0.6c-1,0-2,0.2-2.9,0.6c-0.9,0.4-1.7,1-2.4,1.8c-0.7,0.8-1.2,1.7-1.6,2.8
		c-0.4,1.1-0.6,2.4-0.6,3.9C177.6,42.9,177.8,44.2,178.2,45.3 M174.2,36.5c0.5-1.5,1.2-2.9,2.2-4c1-1.1,2.2-2,3.7-2.7
		c1.4-0.6,3.1-1,5-1c1.9,0,3.6,0.3,5,1c1.4,0.6,2.6,1.5,3.6,2.7c1,1.1,1.7,2.5,2.2,4c0.5,1.5,0.7,3.2,0.7,4.9c0,1.8-0.2,3.4-0.7,4.9
		c-0.5,1.5-1.2,2.8-2.2,4c-1,1.1-2.2,2-3.6,2.6c-1.4,0.6-3.1,0.9-5,0.9c-1.9,0-3.6-0.3-5-0.9c-1.5-0.6-2.7-1.5-3.7-2.6
		c-1-1.1-1.7-2.4-2.2-4c-0.5-1.5-0.7-3.1-0.7-4.9C173.4,39.7,173.7,38,174.2,36.5"/>
	<path class="st1" d="M205,29.4v3.8h0.1c1.6-2.9,4.2-4.4,7.8-4.4c1.6,0,2.9,0.2,3.9,0.6c1.1,0.4,1.9,1,2.5,1.8
		c0.6,0.8,1.1,1.7,1.4,2.8c0.3,1.1,0.4,2.2,0.4,3.5v15.7h-3.9V37.2c0-1.5-0.4-2.7-1.3-3.5c-0.9-0.9-2.1-1.3-3.6-1.3
		c-1.2,0-2.2,0.2-3.1,0.6c-0.9,0.4-1.6,0.9-2.2,1.6c-0.6,0.7-1,1.5-1.3,2.4c-0.3,0.9-0.4,1.9-0.4,3v13.5l-3.9,0V29.4H205z"/>
	<path class="st1" d="M230.3,44.9c0.3,1.1,0.7,2,1.3,2.8c0.6,0.8,1.4,1.5,2.3,2c0.9,0.5,2,0.7,3.3,0.7c1.3,0,2.5-0.3,3.4-0.8
		c0.9-0.5,1.7-1.2,2.3-2.1c0.6-0.8,1-1.8,1.3-2.9c0.3-1.1,0.4-2.2,0.4-3.3c0-1.2-0.1-2.3-0.4-3.4c-0.3-1.1-0.7-2.1-1.3-2.9
		c-0.6-0.8-1.4-1.5-2.3-2c-1-0.5-2.1-0.8-3.5-0.8c-1.3,0-2.5,0.3-3.4,0.8c-0.9,0.5-1.7,1.2-2.2,2.1c-0.6,0.9-1,1.9-1.2,3
		c-0.2,1.1-0.4,2.3-0.4,3.4C229.9,42.7,230,43.8,230.3,44.9 M244.5,53.4v-3.2h-0.1c-0.6,1.3-1.7,2.3-3.1,2.9
		c-1.4,0.6-2.9,0.9-4.6,0.9c-1.9,0-3.5-0.3-4.8-1c-1.4-0.7-2.5-1.6-3.4-2.7c-0.9-1.1-1.6-2.5-2.1-4c-0.5-1.5-0.7-3.1-0.7-4.8
		c0-1.7,0.2-3.3,0.7-4.8c0.4-1.5,1.1-2.8,2-4c0.9-1.1,2.1-2,3.4-2.7c1.4-0.7,3-1,4.8-1c0.6,0,1.3,0.1,2,0.2c0.7,0.1,1.4,0.3,2.1,0.6
		c0.7,0.3,1.4,0.7,2,1.2c0.6,0.5,1.2,1.1,1.6,1.8h0.1V20.3h3.9v33H244.5z"/>
	<path class="st1" d="M257.9,45.3c0.4,1.1,0.9,2.1,1.6,2.8c0.7,0.8,1.5,1.3,2.4,1.7s1.9,0.6,2.9,0.6c1,0,2-0.2,2.9-0.6
		c0.9-0.4,1.7-1,2.4-1.7c0.7-0.8,1.2-1.7,1.6-2.8c0.4-1.1,0.6-2.4,0.6-3.9c0-1.5-0.2-2.7-0.6-3.9c-0.4-1.1-0.9-2.1-1.6-2.8
		c-0.7-0.8-1.5-1.4-2.4-1.8c-0.9-0.4-1.9-0.6-2.9-0.6c-1,0-2,0.2-2.9,0.6c-0.9,0.4-1.7,1-2.4,1.8c-0.7,0.8-1.2,1.7-1.6,2.8
		c-0.4,1.1-0.6,2.4-0.6,3.9C257.3,42.9,257.5,44.2,257.9,45.3 M253.9,36.5c0.5-1.5,1.2-2.9,2.2-4c1-1.1,2.2-2,3.7-2.7
		c1.4-0.6,3.1-1,5-1c1.9,0,3.6,0.3,5,1c1.4,0.6,2.6,1.5,3.6,2.7c1,1.1,1.7,2.5,2.2,4c0.5,1.5,0.7,3.2,0.7,4.9c0,1.8-0.2,3.4-0.7,4.9
		c-0.5,1.5-1.2,2.8-2.2,4c-1,1.1-2.2,2-3.6,2.6c-1.4,0.6-3.1,0.9-5,0.9c-1.9,0-3.6-0.3-5-0.9c-1.5-0.6-2.7-1.5-3.7-2.6
		c-1-1.1-1.7-2.4-2.2-4c-0.5-1.5-0.7-3.1-0.7-4.9C253.2,39.7,253.4,38,253.9,36.5"/>
	<path class="st1" d="M284.7,29.4v3.8h0.1c1.6-2.9,4.2-4.4,7.8-4.4c1.6,0,2.9,0.2,3.9,0.6c1.1,0.4,1.9,1,2.5,1.8
		c0.6,0.8,1.1,1.7,1.4,2.8c0.3,1.1,0.4,2.2,0.4,3.5v15.7h-3.9V37.2c0-1.5-0.4-2.7-1.3-3.5c-0.9-0.9-2.1-1.3-3.6-1.3
		c-1.2,0-2.2,0.2-3.1,0.6c-0.9,0.4-1.6,0.9-2.2,1.6c-0.6,0.7-1,1.5-1.3,2.4c-0.3,0.9-0.4,1.9-0.4,3v13.5H281V29.4H284.7z"/>
	<rect x="320.5" y="20.3" class="st1" width="4.4" height="33"/>
	<path class="st1" d="M335.3,29.4v3.8h0.1c1.6-2.9,4.2-4.4,7.8-4.4c1.6,0,2.9,0.2,3.9,0.6c1.1,0.4,1.9,1,2.5,1.8
		c0.6,0.8,1.1,1.7,1.4,2.8c0.3,1.1,0.4,2.2,0.4,3.5v15.7h-3.9V37.2c0-1.5-0.4-2.7-1.3-3.5c-0.9-0.9-2.1-1.3-3.6-1.3
		c-1.2,0-2.2,0.2-3.1,0.6c-0.9,0.4-1.6,0.9-2.2,1.6c-0.6,0.7-1,1.5-1.3,2.4c-0.3,0.9-0.4,1.9-0.4,3v13.5l-3.9,0V29.4H335.3z"/>
	<path class="st1" d="M367.6,29.4v3.5h-4.8v14.9c0,0.5,0,0.8,0.1,1.1c0.1,0.3,0.2,0.5,0.4,0.6c0.2,0.2,0.5,0.3,0.9,0.3
		c0.4,0,0.9,0.1,1.5,0.1h1.8v3.5h-3c-1,0-1.9-0.1-2.6-0.2c-0.7-0.1-1.3-0.4-1.8-0.8c-0.4-0.4-0.8-0.9-1-1.6
		c-0.2-0.7-0.3-1.6-0.3-2.7V32.9h-4.1v-3.5h4.1v-7.2h3.9v7.2H367.6z"/>
	<path class="st1" d="M387.9,36.5c-0.4-0.8-0.8-1.6-1.4-2.2c-0.6-0.6-1.3-1.1-2.1-1.4c-0.8-0.4-1.7-0.5-2.7-0.5
		c-1,0-1.9,0.2-2.8,0.5c-0.8,0.4-1.5,0.8-2.1,1.5c-0.6,0.6-1.1,1.3-1.4,2.2c-0.3,0.8-0.5,1.7-0.6,2.6h13.7
		C388.5,38.2,388.3,37.3,387.9,36.5 M388.9,51.8c-1.8,1.4-4,2-6.8,2c-1.9,0-3.6-0.3-5-0.9c-1.4-0.6-2.6-1.5-3.5-2.6
		c-1-1.1-1.7-2.4-2.2-4c-0.5-1.5-0.7-3.2-0.8-5c0-1.8,0.3-3.5,0.8-5c0.6-1.5,1.3-2.8,2.3-3.9c1-1.1,2.2-2,3.6-2.6
		c1.4-0.6,2.9-0.9,4.5-0.9c2.1,0,3.9,0.4,5.3,1.3c1.4,0.9,2.5,2,3.4,3.4c0.8,1.4,1.4,2.8,1.8,4.4c0.3,1.6,0.5,3.1,0.4,4.6h-17.9
		c0,1.1,0.1,2,0.4,3c0.3,0.9,0.7,1.8,1.3,2.5c0.6,0.7,1.4,1.3,2.4,1.7c1,0.4,2.1,0.6,3.4,0.6c1.7,0,3-0.4,4.1-1.2
		c1.1-0.8,1.8-1.9,2.1-3.5h3.9C391.8,48.5,390.7,50.5,388.9,51.8"/>
	<path class="st1" d="M400.4,29.4v5h0.1c1-1.9,2.1-3.4,3.5-4.3c1.4-0.9,3.1-1.4,5.3-1.3V33c-1.6,0-2.9,0.2-4,0.6
		c-1.1,0.4-2,1.1-2.7,1.9c-0.7,0.8-1.2,1.8-1.5,3c-0.3,1.2-0.5,2.6-0.5,4.1v10.6l-3.9,0V29.4H400.4z"/>
	<path class="st1" d="M416.8,29.4v3.8h0.1c1.6-2.9,4.2-4.4,7.8-4.4c1.6,0,2.9,0.2,3.9,0.6c1.1,0.4,1.9,1,2.5,1.8
		c0.6,0.8,1.1,1.7,1.4,2.8c0.3,1.1,0.4,2.2,0.4,3.5v15.7h-3.9V37.2c0-1.5-0.4-2.7-1.3-3.5c-0.9-0.9-2.1-1.3-3.6-1.3
		c-1.2,0-2.2,0.2-3.1,0.6c-0.9,0.4-1.6,0.9-2.2,1.6c-0.6,0.7-1,1.5-1.3,2.4c-0.3,0.9-0.4,1.9-0.4,3v13.5h-3.9V29.4H416.8z"/>
	<path class="st1" d="M453.6,41c-0.5,0.4-1.1,0.6-1.9,0.8c-0.8,0.2-1.6,0.3-2.5,0.4c-0.9,0.1-1.8,0.2-2.7,0.4
		c-0.9,0.1-1.7,0.4-2.4,0.7c-0.7,0.3-1.3,0.7-1.7,1.3c-0.4,0.6-0.7,1.3-0.7,2.3c0,0.6,0.1,1.2,0.4,1.6c0.3,0.4,0.6,0.8,1,1.1
		c0.4,0.3,0.9,0.5,1.5,0.6c0.6,0.1,1.1,0.2,1.8,0.2c1.3,0,2.4-0.2,3.3-0.5c0.9-0.4,1.7-0.8,2.3-1.3c0.6-0.5,1-1.1,1.3-1.7
		c0.3-0.6,0.4-1.2,0.4-1.8V41z M460,53.3c-0.7,0.4-1.6,0.6-2.8,0.6c-1,0-1.8-0.3-2.4-0.9c-0.6-0.6-0.9-1.5-0.9-2.8
		c-1.1,1.3-2.3,2.2-3.8,2.8c-1.4,0.6-3,0.9-4.7,0.9c-1.1,0-2.1-0.1-3.1-0.4c-1-0.2-1.8-0.6-2.5-1.2c-0.7-0.5-1.3-1.2-1.7-2.1
		c-0.4-0.8-0.6-1.9-0.6-3.1c0-1.4,0.2-2.5,0.7-3.3s1.1-1.6,1.8-2.1c0.8-0.5,1.6-0.9,2.6-1.2c1-0.3,2-0.5,3-0.7
		c1.1-0.2,2.1-0.4,3.1-0.5c1-0.1,1.8-0.3,2.6-0.5c0.7-0.2,1.3-0.5,1.8-0.9c0.4-0.4,0.6-0.9,0.6-1.7c0-0.9-0.2-1.6-0.5-2.1
		c-0.3-0.5-0.7-0.9-1.3-1.2c-0.5-0.3-1.1-0.5-1.7-0.6c-0.6-0.1-1.3-0.1-1.9-0.1c-1.7,0-3.1,0.3-4.2,0.9c-1.1,0.6-1.7,1.8-1.8,3.6
		h-3.9c0.1-1.5,0.4-2.7,0.9-3.7c0.6-1,1.3-1.8,2.2-2.5c0.9-0.6,2-1.1,3.2-1.4c1.2-0.3,2.5-0.4,3.8-0.4c1.1,0,2.2,0.1,3.2,0.2
		c1.1,0.2,2,0.5,2.9,0.9c0.9,0.5,1.6,1.1,2.1,2c0.5,0.9,0.8,2,0.8,3.4v12.3c0,0.9,0.1,1.6,0.2,2c0.1,0.4,0.5,0.6,1.1,0.6
		c0.3,0,0.7-0.1,1.2-0.2V53.3z"/>
	<path class="st1" d="M473.9,29.4v3.5h-4.8v14.9c0,0.5,0,0.8,0.1,1.1c0.1,0.3,0.2,0.5,0.4,0.6c0.2,0.2,0.5,0.3,0.9,0.3
		c0.4,0,0.9,0.1,1.5,0.1h1.8v3.5h-3c-1,0-1.9-0.1-2.6-0.2c-0.7-0.1-1.3-0.4-1.8-0.8c-0.4-0.4-0.8-0.9-1-1.6
		c-0.2-0.7-0.3-1.6-0.3-2.7V32.9h-4.1v-3.5h4.1v-7.2h3.9v7.2H473.9z"/>
	<path class="st1" d="M478.5,25.1v-4.8h3.9v4.8H478.5z M482.4,53.4h-3.9V29.4h3.9V53.4z"/>
	<path class="st1" d="M491.9,45.3c0.4,1.1,0.9,2.1,1.6,2.8c0.7,0.8,1.5,1.3,2.4,1.7c0.9,0.4,1.9,0.6,2.9,0.6c1,0,2-0.2,2.9-0.6
		c0.9-0.4,1.7-1,2.4-1.7c0.7-0.8,1.2-1.7,1.6-2.8c0.4-1.1,0.6-2.4,0.6-3.9c0-1.5-0.2-2.7-0.6-3.9c-0.4-1.1-0.9-2.1-1.6-2.8
		c-0.7-0.8-1.5-1.4-2.4-1.8c-0.9-0.4-1.9-0.6-2.9-0.6c-1,0-2,0.2-2.9,0.6c-0.9,0.4-1.7,1-2.4,1.8c-0.7,0.8-1.2,1.7-1.6,2.8
		c-0.4,1.1-0.6,2.4-0.6,3.9C491.4,42.9,491.6,44.2,491.9,45.3 M487.9,36.5c0.5-1.5,1.2-2.9,2.2-4c1-1.1,2.2-2,3.7-2.7
		c1.4-0.6,3.1-1,5-1c1.9,0,3.6,0.3,5,1c1.4,0.6,2.6,1.5,3.6,2.7c1,1.1,1.7,2.5,2.2,4c0.5,1.5,0.7,3.2,0.7,4.9c0,1.8-0.2,3.4-0.7,4.9
		c-0.5,1.5-1.2,2.8-2.2,4c-1,1.1-2.2,2-3.6,2.6c-1.4,0.6-3.1,0.9-5,1c-1.9,0-3.6-0.3-5-1c-1.5-0.6-2.7-1.5-3.7-2.6
		c-1-1.1-1.7-2.4-2.2-4c-0.5-1.5-0.7-3.1-0.7-4.9C487.2,39.7,487.4,38,487.9,36.5"/>
	<path class="st1" d="M518.8,29.4v3.8h0.1c1.6-2.9,4.2-4.4,7.8-4.4c1.6,0,2.9,0.2,3.9,0.6c1.1,0.4,1.9,1,2.5,1.8
		c0.6,0.8,1.1,1.7,1.4,2.8c0.3,1.1,0.4,2.2,0.4,3.5v15.7h-3.9V37.2c0-1.5-0.4-2.7-1.3-3.5c-0.9-0.9-2.1-1.3-3.6-1.3
		c-1.2,0-2.2,0.2-3.1,0.6c-0.9,0.4-1.6,0.9-2.2,1.6c-0.6,0.7-1,1.5-1.3,2.4c-0.3,0.9-0.4,1.9-0.4,3v13.5h-3.9V29.4H518.8z"/>
	<path class="st1" d="M555.6,41c-0.5,0.4-1.1,0.6-1.9,0.8c-0.8,0.2-1.6,0.3-2.5,0.4c-0.9,0.1-1.8,0.2-2.7,0.4
		c-0.9,0.1-1.7,0.4-2.4,0.7c-0.7,0.3-1.3,0.7-1.7,1.3c-0.4,0.6-0.7,1.3-0.7,2.3c0,0.6,0.1,1.2,0.4,1.6c0.3,0.4,0.6,0.8,1,1.1
		c0.4,0.3,0.9,0.5,1.5,0.6c0.6,0.1,1.1,0.2,1.8,0.2c1.3,0,2.4-0.2,3.3-0.5c0.9-0.4,1.7-0.8,2.3-1.3c0.6-0.5,1-1.1,1.3-1.7
		c0.3-0.6,0.4-1.2,0.4-1.8V41z M562,53.3c-0.7,0.4-1.6,0.6-2.8,0.6c-1,0-1.8-0.3-2.4-0.9c-0.6-0.6-0.9-1.5-0.9-2.8
		c-1.1,1.3-2.3,2.2-3.8,2.8c-1.4,0.6-3,0.9-4.7,0.9c-1.1,0-2.1-0.1-3.1-0.4c-1-0.2-1.8-0.6-2.5-1.2c-0.7-0.5-1.3-1.2-1.7-2.1
		c-0.4-0.8-0.6-1.9-0.6-3.1c0-1.4,0.2-2.5,0.7-3.3s1.1-1.6,1.8-2.1c0.8-0.5,1.6-0.9,2.6-1.2c1-0.3,2-0.5,3-0.7
		c1.1-0.2,2.1-0.4,3.1-0.5c1-0.1,1.8-0.3,2.6-0.5c0.7-0.2,1.3-0.5,1.8-0.9c0.4-0.4,0.6-0.9,0.6-1.7c0-0.9-0.2-1.6-0.5-2.1
		c-0.3-0.5-0.7-0.9-1.3-1.2c-0.5-0.3-1.1-0.5-1.7-0.6c-0.6-0.1-1.3-0.1-1.9-0.1c-1.7,0-3.1,0.3-4.2,0.9c-1.1,0.6-1.7,1.8-1.8,3.6
		h-3.9c0.1-1.5,0.4-2.7,0.9-3.7c0.6-1,1.3-1.8,2.2-2.5c0.9-0.6,2-1.1,3.2-1.4c1.2-0.3,2.5-0.4,3.8-0.4c1.1,0,2.2,0.1,3.2,0.2
		c1.1,0.2,2,0.5,2.9,0.9c0.9,0.5,1.6,1.1,2.1,2c0.5,0.9,0.8,2,0.8,3.4v12.3c0,0.9,0.1,1.6,0.2,2c0.1,0.4,0.5,0.6,1.1,0.6
		c0.3,0,0.7-0.1,1.2-0.2V53.3z"/>
	<rect x="565.9" y="20.3" class="st1" width="3.9" height="33"/>
	<path class="st1" d="M161.3,100.2c0.5,0,1.1,0,1.9-0.1c0.7-0.1,1.5-0.3,2.4-0.6c0.8-0.3,1.7-0.7,2.5-1.3c0.8-0.6,1.6-1.3,2.2-2.3
		c0.6-1,1.2-2.2,1.6-3.6c0.4-1.4,0.6-3.2,0.6-5.2c0-2-0.2-3.7-0.6-5.3c-0.4-1.6-1-2.9-1.9-4c-0.9-1.1-2-1.9-3.4-2.5
		c-1.4-0.6-3.1-0.9-5.1-0.9H154v25.6H161.3z M161,70.8c5.1,0,9,1.3,11.8,3.9c2.7,2.6,4.1,6.5,4.1,11.8c0,2.8-0.3,5.2-0.9,7.4
		c-0.6,2.1-1.6,3.9-2.9,5.4c-1.3,1.5-2.9,2.6-5,3.4c-2,0.8-4.4,1.2-7.1,1.2h-11.3v-33H161z"/>
	<path class="st1" d="M182,70.8h3.9v4.8H182V70.8z M186,103.9H182V79.9h3.9V103.9z"/>
	<path class="st1" d="M195.3,98.5c0.4,0.6,0.9,1.1,1.5,1.4c0.6,0.4,1.3,0.6,2,0.8c0.8,0.2,1.5,0.2,2.3,0.2c0.6,0,1.3,0,1.9-0.1
		c0.7-0.1,1.3-0.3,1.9-0.5c0.6-0.2,1-0.6,1.4-1.1c0.4-0.5,0.6-1.1,0.6-1.8c0-1-0.4-1.8-1.2-2.3c-0.8-0.5-1.7-0.9-2.9-1.3
		c-1.2-0.3-2.4-0.6-3.8-0.9c-1.4-0.3-2.6-0.6-3.8-1.1c-1.2-0.5-2.1-1.2-2.9-2c-0.8-0.9-1.2-2.1-1.2-3.6c0-1.2,0.3-2.2,0.8-3.1
		c0.5-0.9,1.2-1.6,2.1-2.1c0.8-0.5,1.8-0.9,2.9-1.2c1.1-0.3,2.1-0.4,3.2-0.4c1.4,0,2.6,0.1,3.7,0.3c1.1,0.2,2.2,0.6,3,1.2
		c0.9,0.6,1.6,1.3,2.1,2.3c0.5,1,0.8,2.2,0.9,3.6h-3.9c-0.1-0.8-0.3-1.4-0.6-1.9c-0.3-0.5-0.8-0.9-1.3-1.2c-0.5-0.3-1.1-0.5-1.7-0.7
		c-0.6-0.1-1.3-0.2-1.9-0.2c-0.6,0-1.2,0-1.8,0.1c-0.6,0.1-1.2,0.3-1.6,0.5c-0.5,0.2-0.9,0.5-1.2,0.9c-0.3,0.4-0.5,0.9-0.5,1.5
		c0,0.7,0.2,1.2,0.7,1.7c0.5,0.4,1.1,0.8,1.8,1.1c0.7,0.3,1.6,0.5,2.5,0.7c0.9,0.2,1.9,0.4,2.8,0.6c1,0.2,2,0.5,2.9,0.8
		c0.9,0.3,1.8,0.7,2.5,1.2c0.7,0.5,1.3,1.2,1.8,1.9c0.4,0.8,0.7,1.7,0.7,2.9c0,1.5-0.3,2.7-0.9,3.6c-0.6,1-1.4,1.7-2.4,2.3
		c-1,0.6-2.1,1-3.3,1.2c-1.2,0.2-2.4,0.3-3.6,0.3c-1.3,0-2.6-0.1-3.8-0.4c-1.2-0.3-2.3-0.7-3.2-1.4c-0.9-0.6-1.7-1.5-2.2-2.5
		c-0.6-1-0.9-2.3-0.9-3.8h3.9C194.8,97.2,195,97.9,195.3,98.5"/>
	<path class="st1" d="M233.9,88.4c-0.3-1.1-0.7-2-1.3-2.8c-0.6-0.8-1.4-1.5-2.3-2c-0.9-0.5-2-0.7-3.3-0.7c-1.3,0-2.5,0.3-3.4,0.8
		c-0.9,0.5-1.7,1.2-2.3,2.1c-0.6,0.8-1,1.8-1.3,2.9c-0.3,1.1-0.4,2.2-0.4,3.3c0,1.2,0.1,2.3,0.4,3.4c0.3,1.1,0.7,2.1,1.3,2.9
		c0.6,0.8,1.4,1.5,2.3,2c1,0.5,2.1,0.8,3.5,0.8c1.4,0,2.5-0.3,3.4-0.8c0.9-0.5,1.6-1.2,2.2-2.1c0.6-0.9,1-1.9,1.2-3
		c0.2-1.1,0.4-2.3,0.4-3.4C234.3,90.6,234.2,89.5,233.9,88.4 M219.8,79.9v3.2h0.1c0.6-1.3,1.7-2.3,3.1-2.9c1.4-0.6,2.9-0.9,4.6-0.9
		c1.9,0,3.5,0.3,4.8,1c1.4,0.7,2.5,1.6,3.4,2.8c0.9,1.2,1.6,2.5,2.1,4c0.5,1.5,0.7,3.1,0.7,4.8s-0.2,3.3-0.7,4.8
		c-0.4,1.5-1.1,2.8-2,4c-0.9,1.1-2.1,2-3.4,2.7c-1.4,0.6-3,1-4.8,1c-0.6,0-1.2-0.1-2-0.2c-0.7-0.1-1.4-0.3-2.2-0.6
		c-0.7-0.3-1.4-0.7-2-1.1c-0.6-0.5-1.2-1.1-1.6-1.8h-0.1V113h-3.9v-33H219.8z"/>
	<path class="st1" d="M259.5,103.9v-3.8h-0.1c-0.8,1.5-1.9,2.6-3.2,3.3c-1.3,0.7-2.8,1-4.6,1c-1.6,0-2.9-0.2-3.9-0.6
		c-1.1-0.4-1.9-1-2.5-1.8c-0.6-0.8-1.1-1.7-1.4-2.8c-0.3-1.1-0.4-2.2-0.4-3.5V79.9h3.9v16.2c0,1.5,0.4,2.7,1.3,3.5s2.1,1.3,3.6,1.3
		c1.2,0,2.2-0.2,3.1-0.6c0.9-0.4,1.6-0.9,2.2-1.6c0.6-0.7,1-1.5,1.3-2.4c0.3-0.9,0.4-1.9,0.4-3V79.9h3.9v23.9H259.5z"/>
	<path class="st1" d="M279.6,79.9v3.5h-4.8v14.9c0,0.5,0,0.8,0.1,1.1c0.1,0.3,0.2,0.5,0.4,0.6c0.2,0.2,0.5,0.3,0.9,0.3
		c0.4,0,0.9,0.1,1.5,0.1h1.8v3.5h-3c-1,0-1.9-0.1-2.6-0.2c-0.7-0.1-1.3-0.4-1.8-0.8c-0.4-0.4-0.8-0.9-1-1.6
		c-0.2-0.7-0.3-1.6-0.3-2.7V83.4h-4.1v-3.5h4.1v-7.2h3.9v7.2H279.6z"/>
	<path class="st1" d="M300.1,87c-0.4-0.8-0.8-1.6-1.4-2.2c-0.6-0.6-1.3-1.1-2.1-1.4c-0.8-0.4-1.7-0.5-2.7-0.5c-1,0-1.9,0.2-2.8,0.5
		c-0.8,0.4-1.5,0.8-2.1,1.5c-0.6,0.6-1.1,1.3-1.4,2.2c-0.3,0.8-0.5,1.7-0.6,2.6l13.7,0C300.7,88.7,300.5,87.8,300.1,87 M301.1,102.3
		c-1.8,1.4-4,2-6.8,2c-1.9,0-3.6-0.3-5-0.9c-1.4-0.6-2.6-1.5-3.5-2.6c-1-1.1-1.7-2.4-2.2-4c-0.5-1.5-0.7-3.2-0.8-5
		c0-1.8,0.3-3.5,0.8-5c0.6-1.5,1.3-2.8,2.3-3.9s2.2-2,3.6-2.6c1.4-0.6,2.9-0.9,4.5-0.9c2.1,0,3.9,0.4,5.3,1.3c1.4,0.9,2.5,2,3.4,3.4
		c0.8,1.4,1.4,2.8,1.8,4.4c0.3,1.6,0.5,3.1,0.4,4.6H287c0,1.1,0.1,2,0.4,3c0.3,0.9,0.7,1.8,1.3,2.5c0.6,0.7,1.4,1.3,2.4,1.7
		c1,0.4,2.1,0.6,3.4,0.6c1.7,0,3-0.4,4.1-1.2c1.1-0.8,1.8-1.9,2.1-3.5h3.9C304,99,302.9,101,301.1,102.3"/>
	<path class="st1" d="M312.2,98.5c0.4,0.6,0.9,1.1,1.5,1.4c0.6,0.4,1.3,0.6,2,0.8c0.8,0.2,1.5,0.2,2.3,0.2c0.6,0,1.3,0,1.9-0.1
		c0.7-0.1,1.3-0.3,1.9-0.5c0.6-0.2,1-0.6,1.4-1.1c0.4-0.5,0.6-1.1,0.6-1.8c0-1-0.4-1.8-1.2-2.3c-0.8-0.5-1.7-1-2.9-1.3
		c-1.2-0.3-2.4-0.6-3.8-0.9c-1.4-0.3-2.6-0.6-3.8-1.1c-1.2-0.5-2.1-1.2-2.9-2c-0.8-0.9-1.2-2.1-1.2-3.6c0-1.2,0.3-2.2,0.8-3.1
		c0.5-0.9,1.2-1.6,2.1-2.1c0.8-0.5,1.8-0.9,2.9-1.2c1.1-0.3,2.1-0.4,3.2-0.4c1.4,0,2.6,0.1,3.7,0.3c1.1,0.2,2.2,0.6,3,1.2
		c0.9,0.6,1.6,1.3,2.1,2.3c0.5,1,0.8,2.2,0.9,3.6H323c-0.1-0.8-0.3-1.4-0.6-1.9c-0.3-0.5-0.8-0.9-1.3-1.2c-0.5-0.3-1.1-0.5-1.7-0.7
		c-0.6-0.1-1.3-0.2-1.9-0.2c-0.6,0-1.2,0-1.8,0.1c-0.6,0.1-1.2,0.3-1.6,0.5c-0.5,0.2-0.9,0.5-1.2,0.9c-0.3,0.4-0.5,0.9-0.5,1.5
		c0,0.7,0.2,1.2,0.7,1.7c0.5,0.4,1.1,0.8,1.8,1.1c0.7,0.3,1.6,0.5,2.5,0.7c0.9,0.2,1.9,0.4,2.8,0.6c1,0.2,2,0.5,2.9,0.8
		c0.9,0.3,1.8,0.7,2.5,1.2c0.7,0.5,1.3,1.2,1.8,1.9c0.4,0.8,0.7,1.7,0.7,2.9c0,1.5-0.3,2.7-0.9,3.6c-0.6,1-1.4,1.7-2.4,2.3
		c-1,0.6-2.1,1-3.3,1.2c-1.2,0.2-2.4,0.3-3.6,0.3c-1.3,0-2.6-0.1-3.8-0.4c-1.2-0.3-2.3-0.7-3.2-1.4c-0.9-0.6-1.7-1.5-2.2-2.5
		c-0.6-1-0.9-2.3-0.9-3.8h3.9C311.7,97.2,311.9,97.9,312.2,98.5"/>
	<polygon class="st1" points="373.7,103.9 366.2,76.1 366.1,76.1 358.4,103.9 353.9,103.9 345.4,70.8 349.9,70.8 356.4,98.3 
		356.4,98.3 363.9,70.8 368.6,70.8 375.9,98.3 376,98.3 382.7,70.8 387.1,70.8 378.3,103.9 	"/>
	<path class="st1" d="M404.2,87c-0.4-0.8-0.8-1.6-1.4-2.2c-0.6-0.6-1.3-1.1-2.1-1.4c-0.8-0.4-1.7-0.5-2.7-0.5c-1,0-1.9,0.2-2.8,0.5
		c-0.8,0.4-1.5,0.8-2.1,1.5c-0.6,0.6-1.1,1.3-1.4,2.2c-0.3,0.8-0.5,1.7-0.6,2.6l13.7,0C404.8,88.7,404.6,87.8,404.2,87 M405.2,102.3
		c-1.8,1.4-4,2-6.8,2c-1.9,0-3.6-0.3-5-0.9c-1.4-0.6-2.6-1.5-3.5-2.6c-1-1.1-1.7-2.4-2.2-4c-0.5-1.5-0.7-3.2-0.8-5
		c0-1.8,0.3-3.5,0.8-5c0.6-1.5,1.3-2.8,2.3-3.9c1-1.1,2.2-2,3.6-2.6c1.4-0.6,2.9-0.9,4.5-0.9c2.1,0,3.9,0.4,5.3,1.3
		c1.4,0.9,2.5,2,3.4,3.4c0.8,1.4,1.4,2.8,1.8,4.4c0.3,1.6,0.5,3.1,0.4,4.6h-17.9c0,1.1,0.1,2,0.4,3c0.3,0.9,0.7,1.8,1.3,2.5
		c0.6,0.7,1.4,1.3,2.4,1.7c1,0.4,2.1,0.6,3.4,0.6c1.7,0,3-0.4,4.1-1.2c1.1-0.8,1.8-1.9,2.1-3.5h3.9C408.1,99,407,101,405.2,102.3"/>
	<path class="st1" d="M429.3,87c-0.4-0.8-0.8-1.6-1.4-2.2c-0.6-0.6-1.3-1.1-2.1-1.4c-0.8-0.4-1.7-0.5-2.7-0.5c-1,0-1.9,0.2-2.8,0.5
		c-0.8,0.4-1.5,0.8-2.1,1.5c-0.6,0.6-1.1,1.3-1.4,2.2c-0.3,0.8-0.5,1.7-0.6,2.6h13.7C429.9,88.7,429.7,87.8,429.3,87 M430.3,102.3
		c-1.8,1.4-4,2-6.8,2c-1.9,0-3.6-0.3-5-0.9c-1.4-0.6-2.6-1.5-3.5-2.6c-1-1.1-1.7-2.4-2.2-4c-0.5-1.5-0.7-3.2-0.8-5
		c0-1.8,0.3-3.5,0.8-5c0.6-1.5,1.3-2.8,2.3-3.9c1-1.1,2.2-2,3.6-2.6c1.4-0.6,2.9-0.9,4.5-0.9c2.1,0,3.9,0.4,5.3,1.3
		c1.4,0.9,2.5,2,3.4,3.4c0.8,1.4,1.4,2.8,1.8,4.4s0.5,3.1,0.4,4.6h-17.9c0,1.1,0.1,2,0.4,3c0.3,0.9,0.7,1.8,1.3,2.5
		c0.6,0.7,1.4,1.3,2.4,1.7c1,0.4,2.1,0.6,3.4,0.6c1.7,0,3-0.4,4.1-1.2c1.1-0.8,1.8-1.9,2.1-3.5h3.9C433.2,99,432.1,101,430.3,102.3"
		/>
	<polygon class="st1" points="442.6,70.8 442.6,90.4 453.5,79.9 458.8,79.9 449.3,88.6 459.5,103.9 454.5,103.9 446.3,91.4 
		442.6,94.8 442.6,103.9 438.6,103.9 438.6,70.8 	"/>
</g>
</svg>
