<?xml version="1.0" encoding="utf-8"?>
<!-- Generator: Adobe Illustrator 24.2.3, SVG Export Plug-In . SVG Version: 6.00 Build 0)  -->
<svg version="1.1" id="Layer_1" xmlns="http://www.w3.org/2000/svg" xmlns:xlink="http://www.w3.org/1999/xlink" x="0px" y="0px"
	 viewBox="0 0 236.9 52.4" style="enable-background:new 0 0 236.9 52.4;" xml:space="preserve">
<style type="text/css">
	.st0{fill:#FFFFFF;}
	.st1{fill:#ED1C24;}
</style>
<g>
	<path class="st0" d="M70.2,7.4v32.8h19.6v4.1H65.3v-37H70.2z"/>
	<path class="st0" d="M99.2,7.4v37h-4.9v-37H99.2z"/>
	<path class="st0" d="M120.2,7.4c5.7,0,10.1,1.5,13.2,4.3c3.1,2.9,4.6,7.3,4.6,13.3c0,3.1-0.3,5.9-1,8.3c-0.7,2.4-1.8,4.4-3.2,6.1
		c-1.5,1.6-3.3,2.9-5.5,3.8c-2.2,0.9-4.9,1.3-8,1.3h-12.7v-37H120.2z M120.6,40.2c0.6,0,1.2,0,2.1-0.1c0.8-0.1,1.7-0.3,2.6-0.6
		c0.9-0.3,1.9-0.8,2.8-1.4c0.9-0.6,1.7-1.5,2.5-2.5c0.7-1.1,1.3-2.4,1.8-4c0.5-1.6,0.7-3.5,0.7-5.8c0-2.2-0.2-4.2-0.6-5.9
		s-1.1-3.2-2.1-4.5c-1-1.2-2.3-2.2-3.8-2.8c-1.6-0.6-3.5-1-5.7-1h-8.3v28.7H120.6z"/>
	<path class="st0" d="M172.2,44.3l-8.4-31.1h-0.1l-8.5,31.1H150l-9.5-37h5l7.2,30.8h0.1l8.3-30.8h5.3l8.2,30.8h0.1l7.5-30.8h4.9
		l-9.9,37H172.2z"/>
	<path class="st0" d="M190.7,15.4c0.5-1.6,1.2-3,2.3-4.1c1-1.2,2.3-2.1,3.8-2.7c1.5-0.7,3.2-1,5.2-1c1.6,0,3.1,0.2,4.5,0.7
		c1.4,0.5,2.6,1.1,3.7,2c1,0.9,1.9,2,2.5,3.3s0.9,2.8,0.9,4.6c0,1.6-0.3,3.1-0.8,4.3c-0.5,1.2-1.2,2.4-2,3.3c-0.8,1-1.8,1.9-2.8,2.7
		c-1.1,0.8-2.2,1.6-3.3,2.3c-1.1,0.7-2.3,1.4-3.4,2c-1.1,0.7-2.2,1.4-3.1,2.1c-1,0.8-1.8,1.6-2.4,2.5c-0.7,0.9-1.1,1.9-1.3,3h18.8
		v3.9h-24c0.2-2.2,0.6-4,1.2-5.6c0.6-1.5,1.4-2.9,2.3-4c0.9-1.1,2-2.1,3.2-3c1.2-0.9,2.4-1.7,3.7-2.4c1.6-1,2.9-1.9,4.1-2.7
		c1.2-0.8,2.1-1.6,2.9-2.5s1.4-1.7,1.8-2.7c0.4-1,0.6-2.1,0.6-3.4c0-1-0.2-1.9-0.6-2.7c-0.4-0.8-0.9-1.5-1.5-2.1s-1.4-1-2.3-1.3
		c-0.9-0.3-1.8-0.5-2.7-0.5c-1.3,0-2.4,0.3-3.3,0.8c-0.9,0.5-1.7,1.2-2.3,2.1c-0.6,0.9-1,1.8-1.3,2.9c-0.3,1.1-0.4,2.2-0.3,3.3h-4.4
		C190,18.8,190.2,17,190.7,15.4z"/>
	<path class="st0" d="M230.7,44.3V18h-9.5v-3.5c1.2,0,2.5-0.1,3.6-0.3c1.2-0.2,2.2-0.5,3.2-1.1c0.9-0.5,1.8-1.2,2.4-2.1
		c0.7-0.9,1.1-2,1.3-3.4h3.4v36.7H230.7z"/>
</g>
<circle class="st1" cx="27" cy="40.9" r="1.9"/>
<circle class="st1" cx="16.5" cy="15.6" r="1.9"/>
<circle class="st1" cx="27" cy="48.6" r="2.8"/>
<circle class="st1" cx="11.1" cy="10.2" r="2.8"/>
<circle class="st1" cx="27" cy="35.4" r="1.2"/>
<circle class="st1" cx="20.4" cy="19.5" r="1.2"/>
<g>
	<circle class="st1" cx="27" cy="11.3" r="1.9"/>
	<circle class="st1" cx="27" cy="16.8" r="1.2"/>
	<circle class="st1" cx="27" cy="3.6" r="2.8"/>
	<circle class="st1" cx="27" cy="21.1" r="0.7"/>
</g>
<g>
	<circle class="st1" cx="41.9" cy="26.1" r="1.9"/>
	<circle class="st1" cx="36.4" cy="26.1" r="1.2"/>
	<circle class="st1" cx="49.5" cy="26.1" r="2.8"/>
	<circle class="st1" cx="32" cy="26.1" r="0.7"/>
</g>
<g>
	<circle class="st1" cx="12.2" cy="26.1" r="1.9"/>
	<circle class="st1" cx="17.7" cy="26.1" r="1.2"/>
	<circle class="st1" cx="4.6" cy="26.1" r="2.8"/>
	<circle class="st1" cx="22.1" cy="26.1" r="0.7"/>
</g>
<circle class="st1" cx="27" cy="31" r="0.7"/>
<g>
	<circle class="st1" cx="37.5" cy="15.6" r="1.9"/>
	<circle class="st1" cx="42.9" cy="10.2" r="2.8"/>
	<circle class="st1" cx="33.6" cy="19.5" r="1.2"/>
	<circle class="st1" cx="30.5" cy="22.6" r="0.7"/>
</g>
<g>
	<circle class="st1" cx="37.5" cy="36.6" r="1.9"/>
	<circle class="st1" cx="42.9" cy="42" r="2.8"/>
	<circle class="st1" cx="33.6" cy="32.7" r="1.2"/>
	<circle class="st1" cx="30.5" cy="29.6" r="0.7"/>
</g>
<circle class="st1" cx="23.5" cy="22.6" r="0.7"/>
<g>
	<circle class="st1" cx="16.5" cy="36.6" r="1.9"/>
	<circle class="st1" cx="11.1" cy="42" r="2.8"/>
	<circle class="st1" cx="20.4" cy="32.7" r="1.2"/>
	<circle class="st1" cx="23.5" cy="29.6" r="0.7"/>
</g>
</svg>
