<?xml version="1.0" encoding="utf-8"?>
<!-- Generator: Adobe Illustrator 24.0.3, SVG Export Plug-In . SVG Version: 6.00 Build 0)  -->
<svg version="1.1" id="Layer_1" xmlns="http://www.w3.org/2000/svg" xmlns:xlink="http://www.w3.org/1999/xlink" x="0px" y="0px"
	 viewBox="0 0 238.8 63" style="enable-background:new 0 0 238.8 63;" xml:space="preserve">
<style type="text/css">
	.st0{fill:#ED1C24;}
	.st1{enable-background:new    ;}
	.st2{fill:#FFFFFF;}
</style>
<g>
	<path class="st0" d="M20.1,16.8c0.9,0.9,0.9,2.4,0,3.3c-0.9,0.9-2.4,0.9-3.3,0c-0.9-0.9-0.9-2.4,0-3.3S19.2,15.9,20.1,16.8"/>
	<path class="st0" d="M46.2,16.8c0.9,0.9,0.9,2.4,0,3.3c-0.9,0.9-2.4,0.9-3.3,0c-0.9-0.9-0.9-2.4,0-3.3
		C43.9,15.9,45.3,15.9,46.2,16.8"/>
	<path class="st0" d="M20.1,43c0.9,0.9,0.9,2.4,0,3.3c-0.9,0.9-2.4,0.9-3.3,0s-0.9-2.4,0-3.3C17.7,42.1,19.2,42.1,20.1,43"/>
	<path class="st0" d="M46.2,43c0.9,0.9,0.9,2.4,0,3.3c-0.9,0.9-2.4,0.9-3.3,0c-0.9-0.9-0.9-2.4,0-3.3C43.9,42.1,45.3,42.1,46.2,43"
		/>
	<path class="st0" d="M33.9,13c0,1.3-1,2.3-2.3,2.3s-2.3-1-2.3-2.3s1-2.3,2.3-2.3C32.8,10.7,33.9,11.8,33.9,13"/>
	<path class="st0" d="M52.3,31.5c0,1.3-1,2.3-2.3,2.3s-2.3-1-2.3-2.3s1-2.3,2.3-2.3S52.3,30.2,52.3,31.5"/>
	<path class="st0" d="M15.4,31.5c0,1.3-1,2.3-2.3,2.3s-2.3-1-2.3-2.3s1-2.3,2.3-2.3C14.3,29.2,15.4,30.2,15.4,31.5"/>
	<path class="st0" d="M33.9,50c0,1.3-1,2.3-2.3,2.3s-2.3-1-2.3-2.3s1-2.3,2.3-2.3C32.8,47.7,33.9,48.7,33.9,50"/>
	<path class="st0" d="M24.4,22.3c0.6,0.6,0.6,1.5,0,2.1s-1.5,0.6-2.1,0s-0.6-1.5,0-2.1S23.8,21.7,24.4,22.3"/>
	<path class="st0" d="M40.8,22.3c0.6,0.6,0.6,1.5,0,2.1s-1.5,0.6-2.1,0s-0.6-1.5,0-2.1S40.2,21.7,40.8,22.3"/>
	<path class="st0" d="M24.4,38.7c0.6,0.6,0.6,1.5,0,2.1s-1.5,0.6-2.1,0s-0.6-1.5,0-2.1C22.9,38.1,23.8,38.1,24.4,38.7"/>
	<path class="st0" d="M14.2,9.2c1.4,1.4,1.4,3.6,0,5s-3.6,1.4-5,0s-1.4-3.6,0-5C10.6,7.9,12.9,7.9,14.2,9.2"/>
	<path class="st0" d="M53.8,9.2c1.4,1.4,1.4,3.6,0,5s-3.6,1.4-5,0s-1.4-3.6,0-5C50.2,7.9,52.4,7.9,53.8,9.2"/>
	<path class="st0" d="M14.2,48.8c1.4,1.4,1.4,3.6,0,5s-3.6,1.4-5,0s-1.4-3.6,0-5C10.6,47.5,12.9,47.5,14.2,48.8"/>
	<path class="st0" d="M53.8,48.8c1.4,1.4,1.4,3.6,0,5s-3.6,1.4-5,0s-1.4-3.6,0-5C50.2,47.5,52.4,47.5,53.8,48.8"/>
	<path class="st0" d="M35,3.5C35,5.4,33.4,7,31.5,7S28,5.4,28,3.5S29.6,0,31.5,0C33.5,0,35,1.6,35,3.5"/>
	<path class="st0" d="M63,31.5c0,1.9-1.6,3.5-3.5,3.5S56,33.4,56,31.5s1.6-3.5,3.5-3.5C61.5,28,63,29.6,63,31.5"/>
	<path class="st0" d="M7,31.5C7,33.4,5.4,35,3.5,35S0,33.4,0,31.5S1.6,28,3.5,28C5.5,28,7,29.6,7,31.5"/>
	<path class="st0" d="M35,59.5c0,1.9-1.6,3.5-3.5,3.5S28,61.4,28,59.5s1.6-3.5,3.5-3.5C33.5,56,35,57.6,35,59.5"/>
	<path class="st0" d="M40.8,38.7c0.6,0.6,0.6,1.5,0,2.1s-1.5,0.6-2.1,0s-0.6-1.5,0-2.1C39.3,38.1,40.2,38.1,40.8,38.7"/>
	<path class="st0" d="M33,19.9c0,0.8-0.6,1.5-1.5,1.5c-0.8,0-1.5-0.7-1.5-1.5s0.6-1.5,1.5-1.5C32.3,18.4,33,19.1,33,19.9"/>
	<path class="st0" d="M44.6,31.5c0,0.8-0.6,1.5-1.5,1.5c-0.8,0-1.5-0.7-1.5-1.5s0.6-1.5,1.5-1.5C44,30.1,44.6,30.7,44.6,31.5"/>
	<path class="st0" d="M21.4,31.5c0,0.8-0.6,1.5-1.5,1.5c-0.8,0-1.5-0.7-1.5-1.5S19,30,19.9,30C20.7,30.1,21.4,30.7,21.4,31.5"/>
	<path class="st0" d="M33,43.1c0,0.8-0.6,1.5-1.5,1.5c-0.8,0-1.5-0.7-1.5-1.5s0.6-1.5,1.5-1.5C32.3,41.7,33,42.3,33,43.1"/>
	<path class="st0" d="M27.8,26.5c0.4,0.4,0.4,0.9,0,1.3c-0.4,0.4-0.9,0.4-1.3,0c-0.4-0.4-0.4-0.9,0-1.3
		C26.9,26.1,27.5,26.1,27.8,26.5"/>
	<path class="st0" d="M36.6,26.5c0.4,0.4,0.4,0.9,0,1.3c-0.4,0.4-0.9,0.4-1.3,0c-0.4-0.4-0.4-0.9,0-1.3
		C35.6,26.1,36.2,26.1,36.6,26.5"/>
	<path class="st0" d="M27.8,35.2c0.4,0.4,0.4,0.9,0,1.3c-0.4,0.4-0.9,0.4-1.3,0c-0.4-0.4-0.4-0.9,0-1.3
		C26.9,34.9,27.5,34.9,27.8,35.2"/>
	<path class="st0" d="M36.6,35.2c0.4,0.4,0.4,0.9,0,1.3c-0.4,0.4-0.9,0.4-1.3,0c-0.4-0.4-0.4-0.9,0-1.3
		C35.6,34.9,36.2,34.9,36.6,35.2"/>
	<path class="st0" d="M32.5,25.4c0,0.5-0.4,0.9-0.9,0.9s-0.9-0.4-0.9-0.9s0.4-0.9,0.9-0.9C32.1,24.4,32.5,24.8,32.5,25.4"/>
	<path class="st0" d="M38.6,31.5c0,0.5-0.4,0.9-0.9,0.9s-0.9-0.4-0.9-0.9s0.4-0.9,0.9-0.9C38.2,30.6,38.6,31,38.6,31.5"/>
	<path class="st0" d="M26.3,31.5c0,0.5-0.4,0.9-0.9,0.9s-0.9-0.4-0.9-0.9s0.4-0.9,0.9-0.9S26.3,31,26.3,31.5"/>
	<path class="st0" d="M32.5,37.7c0,0.5-0.4,0.9-0.9,0.9s-0.9-0.4-0.9-0.9s0.4-0.9,0.9-0.9S32.5,37.2,32.5,37.7"/>
	<g class="st1">
		<path class="st2" d="M88.5,7.4v42.5h25.3v5.4H82.1V7.4H88.5z"/>
	</g>
	<g class="st1">
		<path class="st2" d="M125.4,7.4v47.8H119V7.4H125.4z"/>
		<path class="st2" d="M152.5,7.4c7.4,0,13,1.9,17,5.6c4,3.8,6,9.5,6,17.2c0,4-0.4,7.6-1.3,10.7c-0.9,3.1-2.3,5.7-4.2,7.8
			c-1.9,2.1-4.3,3.7-7.2,4.9c-2.9,1.1-6.3,1.7-10.3,1.7h-16.4V7.4H152.5z M153,49.9c0.7,0,1.6-0.1,2.7-0.2s2.2-0.4,3.4-0.8
			c1.2-0.4,2.4-1,3.6-1.8c1.2-0.8,2.2-1.9,3.2-3.3c0.9-1.4,1.7-3.1,2.3-5.2c0.6-2.1,0.9-4.6,0.9-7.5c0-2.9-0.3-5.4-0.8-7.7
			c-0.6-2.3-1.5-4.2-2.7-5.8c-1.3-1.6-2.9-2.8-4.9-3.6c-2-0.8-4.5-1.2-7.4-1.2h-10.7v37.1H153z"/>
	</g>
	<g class="st1">
		<path class="st2" d="M218.6,55.3l-10.9-40.2h-0.1l-11.1,40.2h-6.6L177.6,7.4h6.5l9.4,39.8h0.1l10.7-39.8h6.9l10.6,39.8h0.1
			l9.7-39.8h6.4l-12.8,47.8H218.6z"/>
	</g>
</g>
</svg>
