<?xml version="1.0" encoding="utf-8"?>
<!-- Generator: Adobe Illustrator 25.1.0, SVG Export Plug-In . SVG Version: 6.00 Build 0)  -->
<svg version="1.1" id="Capa_1" xmlns="http://www.w3.org/2000/svg" xmlns:xlink="http://www.w3.org/1999/xlink" x="0px" y="0px"
	 viewBox="0 0 512 416" style="enable-background:new 0 0 512 416;" xml:space="preserve">
<style type="text/css">
	.st0{fill:#FFFFFF;}
</style>
<path class="st0" d="M203.2,283.5v-152l133.6,76L203.2,283.5z M500.3,83.7c-5.9-22.1-23.2-39.6-45.2-45.5
	c-39.9-10.7-199.7-10.7-199.7-10.7s-159.8,0-199.7,10.7c-22,5.9-39.3,23.3-45.2,45.5C0,123.8,0,207.5,0,207.5s0,83.7,10.7,123.8
	c5.9,22.1,23.2,39.6,45.2,45.5c39.9,10.7,199.7,10.7,199.7,10.7s159.8,0,199.7-10.7c22-5.9,39.3-23.3,45.2-45.5
	C511,291.2,511,207.5,511,207.5S511,123.8,500.3,83.7"/>
</svg>
